<?xml version="1.0" encoding="utf-8"?>
<!-- Generator: Adobe Illustrator 25.0.0, SVG Export Plug-In . SVG Version: 6.00 Build 0)  -->
<svg version="1.1" id="Layer_1" xmlns="http://www.w3.org/2000/svg" xmlns:xlink="http://www.w3.org/1999/xlink" x="0px" y="0px"
	 width="375.9px" height="378.6px" viewBox="0 0 375.9 378.6" style="enable-background:new 0 0 375.9 378.6;" xml:space="preserve"
	>
<style type="text/css">
	.st0{fill:#FFFFFF;}
	.st1{fill:#F49C1F;}
	.st2{fill:#09BFD6;}
	.st3{fill:#E45425;}
</style>
<rect class="st0" width="375.9" height="378.6"/>
<g>
	<g>
		<path class="st1" d="M187.9,39c-4.5,0-9,1.1-13.1,3.2L54,105c-4.8,2.5-8.7,6.2-11.3,10.7l145.2,73.6V39z"/>
		<path class="st2" d="M321.8,105L201,42.2c-4-2.1-8.5-3.2-13.1-3.2v150.3l145.2-73.6C330.5,111.2,326.6,107.5,321.8,105z"/>
		<path class="st2" d="M42.7,263c2.6,4.5,6.5,8.2,11.3,10.7l120.8,62.7c4,2.1,8.5,3.2,13.1,3.2V189.3L42.7,263z"/>
		<path class="st3" d="M333.1,263c2.5-4.3,4-9.3,4-14.5V130.1c0-5.2-1.4-10.2-4-14.5l-145.2,73.6L333.1,263z"/>
		<path class="st3" d="M42.7,115.7c-2.5,4.3-4,9.3-4,14.5v118.4c0,5.2,1.4,10.2,4,14.5l145.2-73.6L42.7,115.7z"/>
		<path class="st1" d="M187.9,339.6c4.5,0,9-1.1,13.1-3.2l120.8-62.7c4.8-2.5,8.7-6.2,11.3-10.7l-145.2-73.6L187.9,339.6
			L187.9,339.6z"/>
	</g>
	<path d="M197.5,48.9l120.8,62.7c6.9,3.6,11.2,10.7,11.2,18.5v118.4c0,7.8-4.3,14.9-11.2,18.5l-120.8,62.7c-6,3.1-13.2,3.1-19.2,0
		L57.5,267c-6.9-3.6-11.2-10.7-11.2-18.5V130.1c0-7.8,4.3-14.9,11.2-18.5l120.8-62.7C184.4,45.8,191.5,45.8,197.5,48.9z"/>
	<path d="M197.5,48.9l120.8,62.7c6.9,3.6,11.2,10.7,11.2,18.5v118.4c0,7.8-4.3,14.9-11.2,18.5l-120.8,62.7c-6,3.1-13.2,3.1-19.2,0
		L57.5,267c-6.9-3.6-11.2-10.7-11.2-18.5V130.1c0-7.8,4.3-14.9,11.2-18.5l120.8-62.7C184.4,45.8,191.5,45.8,197.5,48.9z"/>
	<path class="st0" d="M142.8,190.1h34.5v38.6c0,0-9.7,8.3-42.3,8.3c-47.6,0-63.5-22.3-63.5-46.4c0-24.2,22.8-47.3,66-47.3
		c30.8,0,39.8,6.4,39.8,6.4v22.2h-7.8c-5.2-1.7-13.5-3.3-26.4-3.3c-27.3,0-34.8,10.9-34.8,20.6c0,15,11.2,23.6,25.9,23.6
		c8,0,8.6-0.9,8.6-0.9L142.8,190.1L142.8,190.1z M263.9,146.9c0,0,0,39.6,0,48.4s-6.2,17.8-18.7,17.8c-12.3,0-18.7-9.1-18.7-17.8
		s0-48.4,0-48.4h-33.5c0,0,0,29.8,0,54.5s21.7,35.5,52.2,35.5s52.2-10.8,52.2-35.5s0-54.5,0-54.5H263.9z"/>
	<path d="M308.2,48.4h-4.5v-2.3h11.5v2.3h-4.5v11.9h-2.5V48.4z M317.8,46.1h2.7l4.3,6.7l4.3-6.7h2.7v14.2h-2.5V50.1l-4.5,6.7h-0.1
		l-4.4-6.6v10.1h-2.4L317.8,46.1L317.8,46.1z"/>
</g>
</svg>
